<svg height="145" viewBox="0 0 173 145" width="173" xmlns="http://www.w3.org/2000/svg" xmlns:xlink="http://www.w3.org/1999/xlink"><defs><path id="a" d="m.90416872 11.7717796c1.1244455 5.1480129 5.12362298 5.4331277 7.83612892 6.9423305 4.82223266 1.8110429 5.12362276 2.4147251 5.72640196 6.9423324.6027791 4.5276074-12.65836214 41.9558274-12.65836214 41.9558274l25.61811394-3.6220851s-1.2775445-33.5349174-.9041688-38.3337423c.3733758-4.7988249 3.616675-2.7165644 4.5208437-8.1496944 0 0-11.754193-4.2257672-16.5764267-5.1312883s-5.42501239-.3018411-7.23334985-2.41472396c-1.80833745-2.11288286.00000015-8.75337385-3.31528522-9.65889535-3.31528538-.9055215-4.13834131 6.32192625-3.01389581 11.46993911z"/><path id="b" d="m1.90416872 12.7717796c1.1244455 5.1480129 5.12362298 5.4331277 7.83612892 6.9423305 4.82223266 1.8110429 5.12362276 2.4147251 5.72640196 6.9423324.6027791 4.5276074-12.65836214 41.9558274-12.65836214 41.9558274l25.61811394-3.6220851s-1.2775445-33.5349174-.9041688-38.3337423c.3733758-4.7988249 3.616675-2.7165644 4.5208437-8.1496944 0 0-11.754193-4.2257672-16.5764267-5.1312883s-5.4250124-.3018411-7.23334985-2.414724c-1.80833745-2.11288282.00000015-8.75337381-3.31528522-9.65889531-3.31528538-.9055215-4.13834131 6.32192625-3.01389581 11.46993911z"/><ellipse id="c" cx="35.39317" cy="35.445648" rx="35.39317" ry="35.445648"/><path id="d" d="m18.9673795 43.9195719c-1.0363068-.1417172-2.0083835-.4251473-2.9162592-.8502988s-1.6806656-.9521544-2.3183929-1.5810244l1.0097299-1.5013088c.0885732-.1328599.205931-.2413604.3520768-.325505.1461459-.0841446.2989324-.1262162.4583642-.1262162.1948612 0 .4030051.0686432.6244382.2059317s.4738631.2989322.7572974.484936c.2834344.1860038.6067218.3720048.9698721.5580086s.792724.3232903 1.2887341.4118635l.504865-5.9520917c-.62887-.1771465-1.2510877-.3852904-1.8666716-.6244382-.615584-.2391477-1.1691585-.5557923-1.6607399-.9499432-.4915815-.3941509-.8879408-.8923679-1.1890898-1.4946659s-.4517212-1.3551592-.4517212-2.2586062c0-.6731566.1350721-1.330803.4052205-1.972959.2701484-.6421559.6620791-1.215659 1.1758038-1.7205265.5137248-.5048674 1.1470139-.9211554 1.8998865-1.2488764.7528725-.3277209 1.6164486-.5137219 2.5907542-.5580086l.1461451-1.6740258c.0177146-.2125757.1062865-.4030053.2657183-.5712945.1594319-.1682891.3675759-.2524324.6244382-.2524324h1.2090187l-.2258607 2.617326c.9388764.1505745 1.7493093.4162902 2.4313232.7971552.6820139.3808649 1.2754457.8104386 1.7803132 1.2887341l-.7971552 1.2090186c-.1240025.1771465-.2480032.3100044-.3720057.3985776s-.2745748.1328592-.4517212.1328592c-.1328599 0-.290075-.0420717-.4716502-.1262162-.1815751-.0841446-.3897191-.1860023-.6244382-.3055762-.234719-.1195739-.4937919-.2413602-.7772262-.3653628-.2834344-.1240025-.5978647-.2258602-.9433003-.3055761l-.4650071 5.5003705c.6377273.1948611 1.2688021.409648 1.8932434.644367.6244413.2347191 1.1868729.5380779 1.6873117.9100855s.9056553.8347958 1.2156616 1.3883785c.3100063.5535828.4650072 1.2466579.4650072 2.0792463 0 .8237311-.1372865 1.596521-.4118635 2.3183929s-.6753649 1.3595896-1.2023757 1.9131723c-.5270107.5535828-1.1758 1.0030852-1.9463871 1.3485208-.7705872.3454356-1.6518776.5535796-2.6438979.6244382l-.159431 1.9530301c-.0177147.2037185-.1062866.3919338-.2657184.5646516s-.3675758.2590754-.6244382.2590754h-1.2090186zm5.1150788-5.6332296c0-.3365783-.059786-.6310799-.1793599-.8835136-.1195738-.2524338-.2878605-.4760778-.5048649-.670939-.2170044-.1948611-.4716487-.3631477-.7639403-.5048649-.2922917-.1417172-.6111506-.2701464-.9565862-.3852916l-.4517212 5.3940831c.9388763-.1240025 1.6496658-.4406471 2.13239-.9499432.4827241-.5092961.7240825-1.1757997.7240825-1.9995308zm-6.4569566-8.6889911c0 .3365783.0575717.6332942.172717.8901566.1151452.2568624.2767889.4849351.484936.6842248.2081471.1992898.4539341.3764336.7373685.5314368s.593436.2945039.9300143.4185065l.4118635-4.9157901c-.4871528.0620013-.9034407.1660733-1.2488764.3122191-.3454356.1461459-.6288657.325504-.8502988.5380797-.2214331.2125758-.3830768.4495057-.484936.7107967-.1018592.2612911-.1527881.5380783-.1527881.8303699zm23.7419372-3.6137699c0 .4694381-.1483579.8502973-.4450782 1.142589-.2967204.2922917-.7905088.4384353-1.48138.4384353h-5.2877958l-.6908678 4.0123476c.8680178-.1771465 1.6607363-.2657184 2.3781795-.2657184 1.0097349 0 1.8976683.1505722 2.6638268.4517212s1.4105191.717437 1.9331012 1.2488764.9167271 1.1536571 1.1824468 1.8666716c.2657197.7130146.3985776 1.4813759.3985776 2.305107 0 1.0185922-.1793581 1.9485972-.5380797 2.790043-.3587216.8414457-.8569386 1.5610925-1.4946659 2.1589618-.6377273.5978694-1.3928028 1.0606576-2.2652492 1.3883786-.8724464.3277209-1.8223801.491579-2.8498296.491579-.602298 0-1.1735868-.0620004-1.7138836-.1860029-.5402967-.1240025-1.0473709-.2900749-1.5212377-.498222s-.9122978-.4472912-1.315306-.7174396-.7639387-.5557928-1.0828024-.8569418l1.0097299-1.3950215c.2125757-.301149.4960058-.4517212.8502988-.4517212.2214331 0 .4450771.0708575.6709389.2125747.2258617.1417172.4893632.296718.7905122.4650072.301149.1682891.651008.3232899 1.0495876.4650071.3985795.1417172.8812964.2125747 1.4481651.2125747.602298 0 1.1337295-.0974291 1.5943103-.2922902s.8436543-.4672197 1.149232-.817084.5358646-.7661523.6908678-1.2488764.2325036-1.0075127.2325036-1.5743814c0-1.0451642-.3033588-1.86224-.9100855-2.4512521-.6067266-.589012-1.4990886-.8835136-2.6771127-.8835136-.9300189 0-1.8644526.1682867-2.8033289.504865l-2.0460315-.5845805 1.5943103-9.3267151h9.4861461zm17.0192623 8.2106979c0 1.6740342-.1793581 3.1288278-.5380797 4.3644244-.3587216 1.2355967-.8547243 2.2563879-1.488023 3.0624043-.6332986.8060165-1.3817312 1.4060912-2.2453203 1.8002421-.863589.3941509-1.7958084.5912234-2.7966859.5912234-1.0008776 0-1.9286683-.1970725-2.7834001-.5912234-.8547317-.3941509-1.5965214-.9942256-2.2253914-1.8002421-.62887-.8060164-1.120444-1.8268076-1.474737-3.0624043-.3542929-1.2355966-.5314368-2.6903902-.5314368-4.3644244 0-1.6828915.1771439-3.1398993.5314368-4.3710673.354293-1.231168.845867-2.2497449 1.474737-3.0557614.62887-.8060164 1.3706597-1.4060911 2.2253914-1.800242.8547318-.3941509 1.7825225-.5912234 2.7834001-.5912234 1.0008775 0 1.9330969.1970725 2.7966859.5912234.8635891.3941509 1.6120217.9942256 2.2453203 1.800242.6332987.8060165 1.1293014 1.8245934 1.488023 3.0557614s.5380797 2.6881758.5380797 4.3710673zm-3.3879094 0c0-1.3905998-.1018577-2.5420346-.3055761-3.4543389-.2037184-.9123044-.4760771-1.638594-.817084-2.1788907-.341007-.5402968-.7329377-.9189417-1.1758038-1.1359461-.4428662-.2170044-.9034401-.325505-1.3817356-.325505-.4694382 0-.9233692.1085006-1.3618067.325505s-.8259396.5956493-1.1625179 1.1359461c-.3365783.5402967-.6045084 1.2665863-.8037981 2.1788907-.1992898.9123043-.2989332 2.0637391-.2989332 3.4543389s.0996434 2.5420346.2989332 3.454339c.1992897.9123043.4672198 1.6385939.8037981 2.1788907.3365783.5402967.7240804.9189416 1.1625179 1.135946.4384375.2170045.8923685.3255051 1.3618067.3255051.4782955 0 .9388694-.1085006 1.3817356-.3255051.4428661-.2170044.8347968-.5956493 1.1758038-1.135946.3410069-.5402968.6133656-1.2665864.817084-2.1788907.2037184-.9123044.3055761-2.0637392.3055761-3.454339z"/><filter id="e" height="108.1%" width="102.2%" x="-1.1%" y="-2%"><feOffset dx="0" dy="1" in="SourceAlpha" result="shadowOffsetOuter1"/><feColorMatrix in="shadowOffsetOuter1" type="matrix" values="0 0 0 0 1   0 0 0 0 1   0 0 0 0 1  0 0 0 1 0"/></filter><path id="f" d="m27.5088881 53.5507442c.0613457 0 .1143253.0230039.1589404.0690122l.44336.4668471c-.2453829.2949947-.5472272.5209735-.905542.6779432-.3583147.1569696-.7884255.2354533-1.290345.2354533-.4489392 0-.8525601-.0744242-1.2108749-.2232747s-.6643417-.355885-.9180899-.6211096-.4482391-.5818656-.5834786-.9499323c-.1352394-.3680668-.2028581-.7699573-.2028581-1.2056834 0-.4411389.0752868-.8450591.2258627-1.2117727.1505758-.3667136.3624942-.6826779.6357616-.9479025.2732673-.2652246.6002072-.4715825.9808295-.6190799.3806223-.1474973.8009737-.2212449 1.2610666-.2212449.4489391 0 .8414064.0696881 1.1774137.2090663s.6239096.3240855.8637156.5541272l-.3764378.5074425c-.0223075.0324765-.0508886.060893-.0857442.0852503-.0348555.0243574-.0829554.0365359-.1443011.0365359-.0641342 0-.1296616-.024357-.1965842-.0730717s-.1519688-.1014882-.2551412-.1583221c-.1031723-.0568338-.23353-.1096073-.391077-.158322-.157547-.0487148-.3576147-.0730718-.6002091-.0730718-.2844211 0-.5458336.0480375-.7842454.1441137-.2384118.0960763-.4433592.2334227-.6148484.4120433-.1714891.1786207-.3053323.3958039-.4015336.6515562-.0962012.2557523-.1443011.5433001-.1443011.8626522 0 .3301776.0480999.6238147.1443011.8809202.0962013.2571054.226559.4736121.391077.6495263.1645181.1759143.3583119.3105544.5813873.4039243.2230753.0933699.4628777.1400541.7194144.1400541.1533643 0 .2920872-.008119.4161729-.0243572.1240856-.0162383.23841-.0419484.3429766-.0771313s.2035548-.0805139.2969676-.1359946c.0934128-.0554806.1861271-.1238155.2781457-.2050068.0278844-.0243573.0571626-.0439782.0878355-.0588633.0306728-.014885.0641336-.0223275.1003834-.0223275zm7.6040432 1.3843032h-.8699895c-.0975955 0-.177762-.0236805-.2405019-.071042-.06274-.0473615-.1080515-.1062243-.1359359-.17659l-.4517253-1.1975642h-2.5054026l-.4517253 1.1975642c-.0223076.0622466-.0662249.1190796-.1317533.1705007s-.1456949.0771313-.2405019.0771313h-.8741722l2.3757407-5.8700948h1.1502265zm-3.9149529-2.2165088h1.928198l-.736145-1.9526387c-.0334613-.086604-.0704076-.1887681-.1108401-.3064953-.0404324-.1177272-.0801671-.2456015-.1192052-.3836265-.0390382.138025-.0773787.2665758-.1150227.3856563-.037644.1190804-.0745903.2232742-.11084.3125845zm8.6162426-2.585927c-.0306729.0595403-.066225.1014884-.1066574.1258458-.0404324.0243573-.0885323.0365358-.1443011.0365358-.0557689 0-.1185079-.020974-.1882189-.0629228-.0697111-.0419488-.1519689-.0886331-.2467759-.1400542s-.2056459-.0981053-.3325201-.1400541c-.1268741-.0419488-.2767506-.0629229-.449634-.0629229-.1561527 0-.2920872.0182678-.4078076.0548038-.1157203.0365361-.2133143.0872798-.2927849.1522328-.0794706.0649529-.1387241.14276-.1777623.2334235s-.058557.1901213-.058557.2983762c0 .1380251.0397347.2530442.1192053.3450609s.1847327.1705004.3157895.2354533c.1310568.064953.2802362.1231391.4475427.1745602s.338096.1062244.5123736.1644114c.1742777.058187.3450672.1258454.5123737.202977s.3164859.1745596.4475427.2922869c.1310567.1177272.2363189.2618394.3157894.432341.0794706.1705015.1192053.377536.1192053.6211096 0 .2652246-.0467057.5135306-.1401185.7449256-.0934128.2313949-.2300444.4330167-.4098989.6048714s-.399441.3071714-.6587661.405954-.5562897.1481732-.8909027.1481732c-.1924025 0-.3820137-.0182677-.5688394-.0548038-.1868256-.036536-.3659803-.0886329-.5374695-.1562923-.1714891-.0676593-.3318221-.1488493-.4810038-.2435724-.1491816-.094723-.2823277-.20027-.3994423-.3166441l.3262461-.5236806c.0306728-.0378893.0676191-.0696887.11084-.0953992.0432208-.0257106.0913207-.0385657.1443011-.0385657.0697111 0 .1449979.02774.2258627.0832206.0808648.0554807.1763675.1170497.286511.1847091.1101434.0676593.239804.1292284.3889857.184709.1491816.0554807.3283363.0832206.5374695.0832206.3206708 0 .5688384-.0737476.7445103-.2212449.1756718-.1474974.2635064-.3592679.2635064-.635318 0-.1542633-.0397347-.2801078-.1192053-.3775372-.0794706-.0974295-.1847327-.179296-.3157895-.2456022-.1310567-.0663061-.2802361-.1224625-.4475427-.1684709-.1673065-.0460083-.3373989-.0960755-.5102823-.150203-.1728834-.0541274-.3429758-.1190794-.5102823-.1948579-.1673065-.0757784-.3164859-.1745596-.4475427-.2963464s-.2363189-.274018-.3157895-.4566982-.1192053-.4079825-.1192053-.6759134c0-.2138035.0439173-.4221912.1317533-.6251692.0878359-.202978.2161023-.3829491.384803-.5399188.1687008-.1569697.3757395-.2828141.6211224-.3775372s.5256171-.1420839.840711-.1420839c.3569206 0 .6859518.0541267.9871035.1623816.3011518.1082549.5576846.2598096.7696062.4546685zm7.185779 4.8024358h-1.133496v-2.5656293h-2.8358313v2.5656293h-1.133496v-5.8700948h1.133496v2.5250339h2.8358313v-2.5250339h1.133496z"/><filter id="g" height="133.3%" width="104.2%" x="-2.1%" y="-8.3%"><feOffset dx="0" dy="1" in="SourceAlpha" result="shadowOffsetOuter1"/><feColorMatrix in="shadowOffsetOuter1" type="matrix" values="0 0 0 0 1   0 0 0 0 1   0 0 0 0 1  0 0 0 1 0"/></filter><mask id="h" fill="#fff"><use fill="#fff" fill-rule="evenodd" xlink:href="#a"/></mask><mask id="i" fill="#fff"><use fill="#fff" fill-rule="evenodd" xlink:href="#b"/></mask></defs><g fill="none" fill-rule="evenodd"><g transform="translate(23 27.116564)"><path d="m63.0951752 98.3352709v.0908113l-.1759509-.0454057-.1759509.0454057v-.0908113l-57.18492086-14.7570695c-3.7768507-.9746493-6.20648577-4.8756514-5.39884742-8.7059334l14.67037258-69.5752813c.8073676-3.82899812 4.5205195-6.08050432 8.2929522-5.02601203l39.7963944 11.12411923 39.7963947-11.12411923c3.772432-1.05449229 7.485584 1.19701391 8.292952 5.02601203l14.670372 69.5752813c.807639 3.830282-1.621996 7.7312841-5.398847 8.7059334z" fill="#f8d763"/><path d="m63.363072 96.2971128-.4438477-.1145388-.1779362.045918 57.0069849-14.7111514c2.679254-.691405 4.41983-3.4944171 3.848087-6.2059473l-14.670372-69.57528124c-.553702-2.62597083-3.049407-4.13874594-5.637397-3.41533592l-40.3693667 11.28427986-40.3693668-11.28427986c-2.5879901-.72341002-5.0836947.78936509-5.6373967 3.41533592l-14.67037257 69.57528124c-.5717427 2.7115302 1.16883341 5.5145423 3.8480875 6.2059473zm-.2678968 2.0381581v.0908113l-.1759509-.0454057-.1759509.0454057v-.0908113l-57.18492086-14.7570695c-3.7768507-.9746493-6.20648577-4.8756514-5.39884742-8.7059334l14.67037258-69.5752813c.8073676-3.82899812 4.5205195-6.08050432 8.2929522-5.02601203l39.7963944 11.12411923 39.7963947-11.12411923c3.772432-1.05449229 7.485584 1.19701391 8.292952 5.02601203l14.670372 69.5752813c.807639 3.830282-1.621996 7.7312841-5.398847 8.7059334z" fill="#2a2a2a" fill-rule="nonzero"/><g stroke-linecap="round" stroke-linejoin="round" stroke-width="1.418917"><g stroke="#2a2a2a" transform="translate(5.031379 .483155)"><path d="m0 76.7278528 57.7118945 16.2648904-22.1698131-33.5905346-33.07876883 13.0826293z" fill="#e3e3e3"/><path d="m15.1317772 5.30376862-15.1317772 71.42408418s10.5570539-3.1822625 27.0964383-.0000013 30.6154562 16.2648917 30.6154562 16.2648917v-79.5776737s-8.7975449-11.29356209-23.2255185-13.06148493c-14.4279736-1.76792283-19.3545988 4.95018405-19.3545988 4.95018405z" fill="#fff"/></g><g stroke="#2a2a2a" transform="matrix(-1 0 0 1 120.455168 .483155)"><path d="m0 76.7278528 57.7118945 16.2648904-22.1698131-33.5905346-33.07876883 13.0826293z" fill="#e3e3e3"/><path d="m15.1317772 5.30376862-15.1317772 71.42408418s10.5570539-3.1822625 27.0964383-.0000013 30.6154562 16.2648917 30.6154562 16.2648917v-79.5776737s-8.7975449-11.29356209-23.2255185-13.06148493c-14.4279736-1.76792283-19.3545988 4.95018405-19.3545988 4.95018405z" fill="#fff"/></g><g stroke="#e3e3e3" transform="translate(11.365611 5.433339)"><path d="m12.3165629 2.47509195s18.6507951-8.83961446 35.8939831 9.19319965"/><path d="m11.6127593 6.36452235s20.4103041-8.13244491 36.2458849 8.83961465"/><path d="m10.9089557 9.90036802s22.8736167-7.07169151 36.5977867 8.83961448"/><path d="m10.2051521 13.7897985s21.8179113-7.07169174 37.6534921 8.8396143"/><path d="m9.50134849 17.3256442s23.22551851-6.3645225 38.35729571 9.5467835"/><path d="m8.4456431 21.568659s24.2812239-6.3645224 39.4130011 9.5467836"/><path d="m7.74183951 25.8116739s24.98502749-5.6573532 40.11680469 10.2539527"/><path d="m6.68613412 30.761858s26.04073288-5.6573533 41.17251008 10.2539527"/><path d="m5.63042873 35.712042s27.09643827-5.6573532 42.22821547 10.2539527"/><path d="m.3519018 63.6452235s28.8559473-4.5965994 47.5067424 14.1433835"/><path d="m1.40760718 58.6950394s27.09643832-4.9501839 46.45103702 13.4362144"/><path d="m2.11141078 54.09844s27.80024182-4.9501841 45.74723342 13.0826297"/><path d="m3.16711616 49.1482559s26.39263474-5.3037685 44.69152804 12.3754606"/><path d="m3.87091975 44.1980719s25.68883115-4.5965994 43.98772445 11.6682914"/><path d="m4.57472335 40.3086415s25.68883105-5.3037687 43.28392085 10.6075378"/></g><g stroke="#e3e3e3" transform="matrix(-1 0 0 1 114.120936 5.433339)"><path d="m12.3165629 2.47509195s18.6507951-8.83961446 35.8939831 9.19319965"/><path d="m11.6127593 6.36452235s20.4103041-8.13244491 36.2458849 8.83961465"/><path d="m10.9089557 9.90036802s22.8736167-7.07169151 36.5977867 8.83961448"/><path d="m10.2051521 13.7897985s21.8179113-7.07169174 37.6534921 8.8396143"/><path d="m9.50134849 17.3256442s23.22551851-6.3645225 38.35729571 9.5467835"/><path d="m8.4456431 21.568659s24.2812239-6.3645224 39.4130011 9.5467836"/><path d="m7.74183951 25.8116739s24.98502749-5.6573532 40.11680469 10.2539527"/><path d="m6.68613412 30.761858s26.04073288-5.6573533 41.17251008 10.2539527"/><path d="m5.63042873 35.712042s27.09643827-5.6573532 42.22821547 10.2539527"/><path d="m.3519018 63.6452235s28.8559473-4.5965994 47.5067424 14.1433835"/><path d="m1.40760718 58.6950394s27.09643832-4.9501839 46.45103702 13.4362144"/><path d="m2.11141078 54.09844s27.80024182-4.9501841 45.74723342 13.0826297"/><path d="m3.16711616 49.1482559s26.39263474-5.3037685 44.69152804 12.3754606"/><path d="m3.87091975 44.1980719s25.68883115-4.5965994 43.98772445 11.6682914"/><path d="m4.57472335 40.3086415s25.68883105-5.3037687 43.28392085 10.6075378"/></g></g><g transform="matrix(-1 0 0 1 107.897468 77.271166)"><use fill="#f9e7d2" xlink:href="#a"/><path d="m6.63057068 5.43312883s.30138958 10.86625757 8.43890812 10.86625757c8.1375186 0 9.0416868 2.4147239 9.0416873 6.3386503s-11.452804 51.0110476-11.452804 51.0110476l51.8390072 1.2073574-12.055583-85.4208589s-31.432185-2.0743257-37.3723075 0c-5.94012243 2.07432573-8.43890812 15.99754603-8.43890812 15.99754603z" fill="#f4d8b7" mask="url(#h)"/></g><g transform="translate(17.083375 76.271166)"><path d="m60.0781281 12.7717796c1.1244455 5.1480129 5.123623 5.4331277 7.8361289 6.9423305 4.8222327 1.8110429 5.1236228 2.4147251 5.726402 6.9423324.6027791 4.5276074-12.6583622 41.9558274-12.6583622 41.9558274l25.6181139-3.6220851s-1.2775445-33.5349174-.9041687-38.3337423 3.6166749-2.7165644 4.5208437-8.1496944c0 0-11.7541931-4.2257672-16.5764267-5.1312883-4.8222337-.9055211-5.4250124-.3018411-7.2333499-2.414724-1.8083374-2.11288282.0000002-8.75337381-3.3152852-9.65889531s-4.1383413 6.32192625-3.0138958 11.46993911zm-1.1817386.2581192c-.6027815-2.7596951-.6713161-6.02014781-.16112-8.50632285.6472537-3.15405367 2.2327622-5.05578083 4.6754643-4.38859264 2.2859038.62436106 2.8734387 2.33818194 3.170467 6.17341164.0131063.17039778.0131063.17039778.025926.33919714.1669777 2.19721544.3379144 3.08117316.71916 3.52662511.3519616.4112361.6275261.6789079.8764183.8589323.3971292.2872446.7948525.4108775 1.8141729.5603002.2120337.0310822 1.2625777.1735527 1.5852513.2199214.7632259.1096767 1.4779405.2260798 2.2617671.3732671 1.6837664.3161784 4.2241107 1.0227194 7.4149767 2.0284606.4995492.1574548 1.0114668.3211682 1.5342426.4905262 1.7983091.5825784 3.6475664 1.2063356 5.4459394 1.8300549.629385.2182859 1.2075709.4210162 1.7217731.6030243.3090474.1093911.5284735.1877043.6454801.2297696l.9496263.3414015-.1656589.9954407c-.3963127 2.3814345-1.1796688 3.6704316-2.5922781 4.8170697-.1178377.0956508-.231758.1850875-.4421437.3491176-1.0483896.821529-1.3515978 1.3100015-1.4736568 2.8787694-.1472912 1.8930642-.039781 8.7091092.2531492 18.7532934.0512779 1.7582513.1074639 3.5876135.1677741 5.4714027.1063186 3.3208574.2202369 6.6519198.334155 9.8315239.0398706 1.1128423.0768923 2.1272365.1101151 3.0229818.0185078.4976487.0185078.4976487.0308429.8261707.0090114.2389089.0090114.2389089.0109003.2884922l.041559 1.0909032-28.6750113 4.0542927.6664647-1.8810286c.024433-.0689589.0722857-.2043728.1416985-.401346.1158197-.3286624.2502081-.7111526.401617-1.1434555.4327325-1.2355394.9149763-2.6221789 1.4343418-4.1277902 1.4838375-4.301561 2.967636-8.6938709 4.3521746-12.91953.2864132-.874143.5660541-1.7335675.8383701-2.5768384 3.5526069-11.0012289 5.6425226-18.6366608 5.4312905-20.2232715-.561877-4.2203823-.6762201-4.363525-4.9526574-5.9695885l-.1628292-.0753673c-.4153047-.2310702-.853019-.4290052-1.6318864-.7503092-.054838-.0226222-.3990199-.1641232-.5005508-.2060971-.1979835-.0818485-.3607989-.1501252-.5183562-.2177084-3.253725-1.3956667-5.0207521-3.095783-5.7789691-6.5671038z" fill="#2a2a2a" fill-rule="nonzero" transform="matrix(-1 0 0 1 149.969962 0)"/><path d="m1.90416872 12.7717796c1.1244455 5.1480129 5.12362298 5.4331277 7.83612892 6.9423305 4.82223266 1.8110429 5.12362276 2.4147251 5.72640196 6.9423324.6027791 4.5276074-12.65836214 41.9558274-12.65836214 41.9558274l25.61811394-3.6220851s-1.2775445-33.5349174-.9041688-38.3337423c.3733758-4.7988249 3.616675-2.7165644 4.5208437-8.1496944 0 0-11.754193-4.2257672-16.5764267-5.1312883s-5.4250124-.3018411-7.23334985-2.414724c-1.80833745-2.11288282.00000015-8.75337381-3.31528522-9.65889531-3.31528538-.9055215-4.13834131 6.32192625-3.01389581 11.46993911zm-1.18173863.2581192c-.60278146-2.7596951-.67131602-6.02014781-.16111994-8.50632285.64725364-3.15405367 2.23276223-5.05578083 4.67546428-4.38859264 2.28590385.62436106 2.87343873 2.33818194 3.17046701 6.17341164.01310626.17039778.01310626.17039778.02592603.33919714.16697764 2.19721544.33791436 3.08117316.71916001 3.52662511.3519616.4112361.62752602.6789079.87641822.8589323.3971292.2872446.7948526.4108775 1.814173.5603002.2120336.0310822 1.2625777.1735527 1.5852513.2199214.7632258.1096767 1.4779404.2260798 2.261767.3732671 1.6837664.3161784 4.2241107 1.0227194 7.4149767 2.0284606.4995493.1574548 1.0114669.3211682 1.5342427.4905262 1.7983091.5825784 3.6475663 1.2063356 5.4459393 1.8300549.629385.2182859 1.2075709.4210162 1.7217731.6030243.3090474.1093911.5284735.1877043.6454802.2297696l.9496262.3414015-.1656589.9954407c-.3963127 2.3814345-1.1796688 3.6704316-2.5922781 4.8170697-.1178377.0956508-.231758.1850875-.4421437.3491176-1.0483896.821529-1.3515978 1.3100015-1.4736568 2.8787694-.1472911 1.8930642-.039781 8.7091092.2531492 18.7532934.0512779 1.7582513.1074639 3.5876135.1677741 5.4714027.1063186 3.3208574.2202369 6.6519198.334155 9.8315239.0398706 1.1128423.0768923 2.1272365.1101152 3.0229818.0185077.4976487.0185077.4976487.0308429.8261707.0090113.2389089.0090113.2389089.0109003.2884922l.041559 1.0909032-28.67501136 4.0542927.66646466-1.8810286c.02443299-.0689589.07228571-.2043728.14169851-.401346.11581973-.3286624.25020817-.7111526.40161698-1.1434555.43273254-1.2355394.91497635-2.6221789 1.43434189-4.1277902 1.48383749-4.301561 2.96763591-8.6938709 4.35217454-12.91953.28641323-.874143.56605413-1.7335675.83837008-2.5768384 3.5526069-11.0012289 5.6425226-18.6366608 5.4312905-20.2232715-.5618769-4.2203823-.6762201-4.363525-4.95265739-5.9695885l-.16282915-.0753673c-.41530476-.2310702-.85301902-.4290052-1.6318864-.7503092-.05483798-.0226222-.39901992-.1641232-.50055082-.2060971-.19798351-.0818485-.36079894-.1501252-.5183562-.2177084-3.253725-1.3956667-5.02075209-3.095783-5.77896915-6.5671038z" fill="#2a2a2a" fill-rule="nonzero"/><use fill="#f9e7d2" xlink:href="#b"/><path d="m7.63057068 6.43312883s.30138958 10.86625757 8.43890812 10.86625757c8.1375186 0 9.0416868 2.4147239 9.0416873 6.3386503s-11.452804 51.0110476-11.452804 51.0110476l51.8390072 1.2073574-12.055583-85.42085888s-31.432185-2.07432572-37.3723075 0c-5.9401224 2.07432571-8.43890812 15.99754601-8.43890812 15.99754601z" fill="#f4d8b7" mask="url(#i)"/></g><path d="m49.3313716 27.9554284h.0321393c6.3773152.0432532 11.567251.4439023 13.4902868 3.8811908 1.9440926 3.4749678 17.7898545 32.2142403 17.7898545 32.2142403s1.7973603 2.544579.9065487 3.2515675c-.1043971.082939-.2189902.1237397-.346439.1237397-.959523 0-2.6507129-2.3316575-6.2680417-6.6966594-2.3720988-2.9512478-4.1566033-3.087473-5.3497456-3.2187932-1.1931422-.1313201-.0602888-.0176134-7.0212085-.4138034-.0396754.0013377-.0789074.0020066-.1181395.0020066-2.4177587 0-3.8828655-2.4788074-3.8828655-2.4788074l-10.9089504-22.8579575s-1.7736437-3.806724 1.6765609-3.806724z" fill="#fff"/><path d="m49.3313716 26.5619632c-1.7567983 0-2.6174654.778111-3.0299561 1.4306986-1.0588223 1.6757255-.1030673 3.9266735.0990775 4.3607658l.0055413.0118166 10.9089504 22.8579574.0580723.1088018c.076026.1290906 1.9039739 3.1603791 5.0735696 3.1603791.0323609 0 .0645002-.000223.0970827-.0008918 3.0485748.1734585 4.539393.2485942 5.3426528.2889489.9276054.0468205.9276054.0468205 1.4487047.1043427l.1004075.0111477.0777991.0084723c1.0617038.1157133 2.3829597.2597419 4.3450059 2.7013159l.013299.0160527c.6609605.7975081 1.2651785 1.536825 1.7984685 2.1887437 2.9807499 3.645305 4.0958713 5.0091173 5.5337151 5.0091173.4390888 0 .8555692-.1462581 1.2044464-.4233905.6476614-.5139099 1.221735-1.5517628.2768409-3.576635-.3213926-.6893751-.7250173-1.3018309-.8635486-1.5053883-.8198835-1.4871061-15.8794527-28.7990243-17.7605967-32.1611772-2.329542-4.163897-8.2770777-4.5476016-14.6880837-4.5910777zm0 1.3934652h.0321393c6.3773152.0432532 11.567251.4439023 13.4902868 3.8811908 1.9440926 3.4749678 17.7898545 32.2142403 17.7898545 32.2142403s1.7973603 2.544579.9065487 3.2515675c-.1043971.082939-.2189902.1237397-.346439.1237397-.959523 0-2.6507129-2.3316575-6.2680417-6.6966594-2.3720988-2.9512478-4.1566033-3.087473-5.3497456-3.2187932-1.1931422-.1313201-.0602888-.0176134-7.0212085-.4138034-.0396754.0013377-.0789074.0020066-.1181395.0020066-2.4177587 0-3.8828655-2.4788074-3.8828655-2.4788074l-10.9089504-22.8579575s-1.7736437-3.806724 1.6765609-3.806724zm6.0820773 2.7347591c-.5723004 0-1.1421627.1444745-1.648633.4178166-1.6956229.9156739-2.3355266 3.0495708-1.4263181 4.7565099.6090944 1.1437563 1.7889376 1.8538661 3.0787192 1.8538661.5723004 0 1.1423843-.1444744 1.648633-.4178166 1.6958446-.9156738 2.3357482-3.0493478 1.4263181-4.7565099-.6090943-1.1435333-1.7887159-1.8538661-3.0787192-1.8538661zm0 1.3934652c.751172 0 1.4779626.4055541 1.8576491 1.1187854.5496921 1.0318331.1644643 2.3169424-.8604455 2.8705383-.3167379.1710061-.657414.2519385-.9934355.2519385-.7509504 0-1.4779625-.4055541-1.8576491-1.1183394-.5496921-1.0320561-.1644643-2.3173884.8604455-2.8707613.3169596-.1710061.6574141-.2521615.9934355-.2521615zm11.0070069 30.7725044c-.2855555.2126292-.6937233.1591568-.9116683-.119434-.2179449-.2785908-.1631357-.6768034.1224198-.8894326.1684931-.1254627.4504712-.2985442.8257087-.4689872 1.2969632-.5891156 2.6924845-.6787175 4.0091047.0785433.046111.0265209.0919479.054039.1375031.0825579 1.3448068.8418841 2.2226098 2.583874 1.8248724 4.6896716-.0650984.3446599-.4042582.5725763-.7575345.5090657-.3532764-.0635107-.5868907-.3943983-.5217923-.7390582.297238-1.5737088-.3287745-2.8160233-1.2480847-3.3915354-.0317695-.0198886-.0636395-.0390218-.0956098-.0574096-.8908983-.5124047-1.8543647-.4505436-2.7993918-.0212869-.2821644.1281667-.4866703.2536949-.5855273.3273054zm-11.337979-19.8356982c-.1683674-.3095842-.0476144-.6937116.2697094-.8579725.3173239-.1642608.7110544-.0464529.8794217.2631313.0529292.0973231.1606085.2862985.320949.5537687.269451.4494818.587448.9512932.95186 1.4922601 1.0419002 1.546693 2.244499 3.0935322 3.5896445 4.5349766 2.2797425 2.4429492 4.7287008 4.3238749 7.3005022 5.4255325 1.6626052.7122431 2.1619303.6005883 2.2348331-.0015953.0951348-.7858209-.3530883-2.2359973-1.2295292-4.0976849-.252415-.5361663-.5359023-1.0979276-.8461893-1.6809313-.433874-.8152136-.8931819-1.6230897-1.3878987-2.4565025-.1882217-.3170832-.7155076-1.1884144-.7566342-1.264358-.1678088-.3098728-.0463632-.6937923.2712563-.8575082.3176196-.163716.711137-.0452325.8789458.2646403.0242924.0448578.5262772.8743794.7321485 1.2211955.5039752.8490098.9725772 1.6732334 1.4166909 2.5076865.3194718.6002612.6121024 1.180141.8738208 1.7360689.9748769 2.0707802 1.4720671 3.679384 1.3392749 4.7762585-.2037037 1.6826092-1.7064082 2.0186312-4.0497138 1.0147829-2.7594603-1.1820432-5.3467562-3.1692192-7.7394275-5.7331818-1.3946795-1.4945245-2.6377082-3.0933665-3.7148359-4.6923545-.3772478-.5600216-.7071099-1.0805565-.9876671-1.5485651-.0986764-.1646058-.1842794-.3111545-.2565649-.4380144-.0440983-.0773917-.0743792-.1318137-.0905965-.1616333z" fill="#2a2a2a"/></g><g transform="translate(98 5)"><use fill="#f8d763" fill-rule="evenodd" xlink:href="#c"/><ellipse cx="35.39317" cy="35.445648" rx="36.89317" ry="36.945648" stroke="#2a2a2a" stroke-width="3"/><use stroke="#b79416" stroke-width="2.81952" xlink:href="#c"/><path d="m35.3931704 66.165209c16.9408272 0 30.674081-13.7536161 30.674081-30.7195613 0-16.9659453-13.7332538-30.71956134-30.674081-30.71956134s-30.67408101 13.75361604-30.67408101 30.71956134c0 16.9659452 13.73325381 30.7195613 30.67408101 30.7195613z" stroke="#b79416" stroke-dasharray=".93984 3.75936" stroke-linecap="round" stroke-linejoin="round" stroke-width="1.87968"/><use fill="#000" filter="url(#e)" xlink:href="#d"/><use fill="#b79416" fill-rule="evenodd" xlink:href="#d"/><use fill="#000" filter="url(#g)" xlink:href="#f"/><use fill="#b79416" fill-rule="evenodd" xlink:href="#f"/></g></g></svg>